<svg width="2940" height="1730" viewBox="0 0 2940 1730" fill="none" xmlns="http://www.w3.org/2000/svg">
<rect width="2940" height="1730" fill="#002F6C"/>
<path d="M1155 1196.32V962.174H1198.65L1217.44 1083.55L1219.04 1095.97H1219.67L1221.27 1083.55L1240.06 962.174H1283.71V1196.32H1251.85V1039.27H1249.94L1248.66 1049.14L1228.28 1196.32H1210.43L1190.04 1049.14L1188.77 1039.27H1186.86V1196.32H1155Z" fill="white"/>
<path d="M1309.32 1196.32V962.174H1352.96L1371.76 1083.55L1373.35 1095.97H1373.99L1375.58 1083.55L1394.38 962.174H1438.03V1196.32H1406.17V1039.27H1404.26L1402.98 1049.14L1382.59 1196.32H1364.75L1344.36 1049.14L1343.09 1039.27H1341.17V1196.32H1309.32Z" fill="white"/>
<path d="M1509.51 1198.87C1499.85 1198.87 1491.56 1196.64 1484.66 1192.18C1477.86 1187.72 1472.66 1181.67 1469.05 1174.02C1465.44 1166.38 1463.63 1157.78 1463.63 1148.22V962.174H1498.04V1148.22C1498.04 1152.78 1498.94 1156.82 1500.75 1160.32C1502.55 1163.72 1505.47 1165.42 1509.51 1165.42C1513.76 1165.42 1516.73 1163.72 1518.43 1160.32C1520.13 1156.82 1520.98 1152.78 1520.98 1148.22V962.174H1555.39V1148.22C1555.39 1157.78 1553.53 1166.38 1549.81 1174.02C1546.2 1181.67 1540.94 1187.72 1534.04 1192.18C1527.24 1196.64 1519.07 1198.87 1509.51 1198.87Z" fill="white"/>
<path d="M1580.92 1196.32V962.174H1615.33C1635.93 962.174 1651.12 967.908 1660.89 979.376C1670.66 990.739 1675.55 1007.52 1675.55 1029.71C1675.55 1042.88 1673.21 1054.29 1668.54 1063.96C1663.97 1073.51 1658.39 1080.52 1651.81 1084.98L1675.23 1196.32H1640.82L1621.39 1097.57H1615.33V1196.32H1580.92ZM1615.33 1065.71C1621.7 1065.71 1626.75 1064.33 1630.47 1061.57C1634.18 1058.7 1636.84 1054.67 1638.43 1049.46C1640.02 1044.26 1640.82 1038.1 1640.82 1030.98C1640.82 1019.83 1638.96 1011.29 1635.24 1005.34C1631.63 999.287 1625 996.261 1615.33 996.261V1065.71Z" fill="white"/>
<path d="M1736.21 1198.87C1726.76 1198.87 1718.9 1197.33 1712.64 1194.25C1706.37 1191.07 1701.43 1186.5 1697.82 1180.55C1694.21 1174.61 1691.61 1167.44 1690.02 1159.05C1688.53 1150.66 1687.79 1141.21 1687.79 1130.7L1721.56 1127.51C1721.56 1132.61 1721.72 1137.55 1722.03 1142.33C1722.46 1147 1723.15 1151.25 1724.11 1155.07C1725.17 1158.78 1726.65 1161.76 1728.57 1163.99C1730.58 1166.22 1733.13 1167.33 1736.21 1167.33C1741.31 1167.33 1744.92 1165 1747.04 1160.32C1749.17 1155.55 1750.23 1149.81 1750.23 1143.12C1750.23 1136.43 1748.48 1129.48 1744.97 1122.26C1741.47 1115.03 1737.27 1108.18 1732.39 1101.71C1724.11 1090.66 1716.83 1080.42 1710.57 1070.97C1704.41 1061.51 1699.57 1052.22 1696.07 1043.09C1692.67 1033.96 1690.97 1024.4 1690.97 1014.42C1690.97 1006.56 1691.98 999.34 1694 992.756C1696.02 986.066 1698.94 980.279 1702.76 975.394C1706.69 970.403 1711.41 966.527 1716.94 963.766C1722.46 961.005 1728.78 959.625 1735.89 959.625C1744.71 959.625 1752.14 961.112 1758.19 964.085C1764.35 967.058 1769.29 971.306 1773.01 976.828C1776.83 982.35 1779.59 988.933 1781.29 996.579C1783.1 1004.12 1784 1012.51 1784 1021.75L1750.23 1024.93C1750.23 1021 1750.02 1017.07 1749.59 1013.14C1749.27 1009.11 1748.64 1005.45 1747.68 1002.15C1746.73 998.862 1745.34 996.207 1743.54 994.19C1741.73 992.172 1739.4 991.163 1736.53 991.163C1732.07 991.163 1728.99 993.075 1727.29 996.898C1725.59 1000.61 1724.74 1005.92 1724.74 1012.83C1724.74 1021.75 1727.13 1030.35 1731.91 1038.63C1736.69 1046.91 1743.11 1056.58 1751.19 1067.62C1760.85 1080.68 1768.71 1092.68 1774.76 1103.62C1780.92 1114.56 1784 1126.66 1784 1139.94C1784 1148.32 1783.1 1156.13 1781.29 1163.35C1779.49 1170.47 1776.62 1176.68 1772.69 1181.99C1768.87 1187.3 1763.93 1191.44 1757.88 1194.41C1751.93 1197.38 1744.71 1198.87 1736.21 1198.87Z" fill="white"/>
<path opacity="0.2" d="M1656.53 837.672V873.111C1656.53 877.056 1654.96 880.84 1652.17 883.629C1649.38 886.419 1645.6 887.986 1641.65 887.986H1500.44L1288.98 676.538C1287.51 675.06 1286.37 673.289 1285.63 671.341C1284.89 669.393 1284.57 667.311 1284.69 665.23C1284.8 663.149 1285.35 661.115 1286.3 659.261C1287.26 657.407 1288.59 655.774 1290.21 654.467L1433.39 545.861C1433.39 573.477 1444.36 599.962 1463.89 619.489C1483.42 639.016 1509.9 649.986 1537.52 649.986V704.633C1537.53 723.98 1542.93 742.942 1553.11 759.393C1563.29 775.843 1577.85 789.133 1595.17 797.769L1648.38 824.377C1650.84 825.623 1652.9 827.525 1654.34 829.872C1655.78 832.219 1656.53 834.919 1656.53 837.672Z" fill="white"/>
<path d="M1654.97 811.064L1601.73 784.456C1586.87 777.088 1574.37 765.704 1565.65 751.596C1556.93 737.487 1552.34 721.218 1552.4 704.633V649.986C1552.4 646.041 1550.83 642.258 1548.04 639.468C1545.25 636.678 1541.47 635.111 1537.52 635.111C1513.86 635.087 1491.17 625.676 1474.44 608.943C1457.7 592.211 1448.29 569.524 1448.27 545.861C1448.26 543.094 1447.49 540.382 1446.03 538.031C1444.57 535.68 1442.48 533.782 1440.01 532.552C1437.53 531.321 1434.75 530.806 1432 531.065C1429.24 531.324 1426.62 532.346 1424.41 534.017L1281.15 642.549L1280.78 642.846C1277.54 645.471 1274.89 648.747 1273 652.462C1271.11 656.177 1270.02 660.249 1269.8 664.413C1269.58 668.577 1270.24 672.74 1271.74 676.632C1273.23 680.524 1275.53 684.059 1278.48 687.006L1489.92 898.51C1491.3 899.891 1492.94 900.986 1494.75 901.733C1496.55 902.479 1498.49 902.863 1500.44 902.861H1641.65C1649.54 902.861 1657.11 899.727 1662.69 894.148C1668.27 888.568 1671.4 881.001 1671.4 873.111V837.672C1671.42 832.144 1669.89 826.722 1666.99 822.02C1664.08 817.317 1659.92 813.522 1654.97 811.064ZM1641.65 873.111H1506.6L1299.51 666.033L1323.44 647.885L1395.57 720.01C1398.36 722.806 1402.15 724.379 1406.1 724.383C1410.05 724.386 1413.84 722.82 1416.64 720.029C1419.43 717.238 1421.01 713.45 1421.01 709.499C1421.01 705.549 1419.45 701.758 1416.66 698.962L1347.37 629.738L1421.75 573.38C1427.39 596.93 1440.06 618.207 1458.08 634.382C1476.1 650.557 1498.62 660.863 1522.65 663.932V704.633C1522.57 726.748 1528.7 748.441 1540.32 767.253C1551.95 786.064 1568.62 801.242 1588.43 811.064L1641.65 837.672V873.111ZM1356.78 843.361H1284.63C1280.69 843.361 1276.9 841.794 1274.11 839.004C1271.32 836.215 1269.76 832.431 1269.76 828.486C1269.76 824.541 1271.32 820.758 1274.11 817.968C1276.9 815.178 1280.69 813.611 1284.63 813.611H1356.78C1360.73 813.611 1364.51 815.178 1367.3 817.968C1370.09 820.758 1371.66 824.541 1371.66 828.486C1371.66 832.431 1370.09 836.215 1367.3 839.004C1364.51 841.794 1360.73 843.361 1356.78 843.361ZM1431.16 887.986C1431.16 891.931 1429.59 895.715 1426.8 898.504C1424.01 901.294 1420.23 902.861 1416.28 902.861H1314.38C1310.44 902.861 1306.65 901.294 1303.87 898.504C1301.08 895.715 1299.51 891.931 1299.51 887.986C1299.51 884.041 1301.08 880.258 1303.87 877.468C1306.65 874.678 1310.44 873.111 1314.38 873.111H1416.28C1420.23 873.111 1424.01 874.678 1426.8 877.468C1429.59 880.258 1431.16 884.041 1431.16 887.986Z" fill="white"/>
<path d="M1356.78 843.361H1284.63C1280.69 843.361 1276.9 841.794 1274.11 839.004C1271.32 836.215 1269.76 832.431 1269.76 828.486C1269.76 824.541 1271.32 820.758 1274.11 817.968C1276.9 815.178 1280.69 813.611 1284.63 813.611H1356.78C1360.73 813.611 1364.51 815.178 1367.3 817.968C1370.09 820.758 1371.66 824.541 1371.66 828.486C1371.66 832.431 1370.09 836.215 1367.3 839.004C1364.51 841.794 1360.73 843.361 1356.78 843.361ZM1431.16 887.986C1431.16 891.931 1429.59 895.715 1426.8 898.504C1424.01 901.294 1420.23 902.861 1416.28 902.861H1314.38C1310.44 902.861 1306.65 901.294 1303.87 898.504C1301.08 895.715 1299.51 891.931 1299.51 887.986C1299.51 884.041 1301.08 880.258 1303.87 877.468C1306.65 874.678 1310.44 873.111 1314.38 873.111H1416.28C1420.23 873.111 1424.01 874.678 1426.8 877.468C1429.59 880.258 1431.16 884.041 1431.16 887.986Z" fill="#FF6A00"/>
</svg>
